<svg width="40" height="40" fill="none" xmlns="http://www.w3.org/2000/svg"><path d="M35 23H25a2 2 0 0 0-2 2v10a2 2 0 0 0 2 2h10a2 2 0 0 0 2-2V25a2 2 0 0 0-2-2Z" stroke="#1A192B" stroke-width="2"/><path d="M35 3H25a2 2 0 0 0-2 2v10a2 2 0 0 0 2 2h10a2 2 0 0 0 2-2V5a2 2 0 0 0-2-2Z" stroke="#FF0072" stroke-width="2"/><path d="M15 23H5a2 2 0 0 0-2 2v10a2 2 0 0 0 2 2h10a2 2 0 0 0 2-2V25a2 2 0 0 0-2-2Zm0-20H5a2 2 0 0 0-2 2v10a2 2 0 0 0 2 2h10a2 2 0 0 0 2-2V5a2 2 0 0 0-2-2Z" stroke="#1A192B" stroke-width="2"/><path d="M17 13a3 3 0 1 0 0-6 3 3 0 0 0 0 6Z" fill="#fff"/><path d="M23 13a3 3 0 1 0 0-6 3 3 0 0 0 0 6Zm7 7a3 3 0 1 0 0-6 3 3 0 0 0 0 6Zm0 6a3 3 0 1 0 0-6 3 3 0 0 0 0 6Zm-13 7a3 3 0 1 0 0-6 3 3 0 0 0 0 6Z" fill="#fff"/><path d="M23 33a3 3 0 1 0 0-6 3 3 0 0 0 0 6Z" fill="#fff"/><path d="M30 25a2 2 0 1 0 0-4 2 2 0 0 0 0 4Zm-13 7a2 2 0 1 0 0-4 2 2 0 0 0 0 4Zm6 0a2 2 0 1 0 0-4 2 2 0 0 0 0 4Z" fill="#1A192B"/><path opacity=".35" d="M22 9.5h-4v1h4v-1Zm7.5 8v4h1v-4h-1Zm-7.5 12h-4v1h4v-1Z" fill="#1A192B"/><path d="M17 12a2 2 0 1 0 0-4 2 2 0 0 0 0 4Z" fill="#1A192B"/><path d="M23 12a2 2 0 1 0 0-4 2 2 0 0 0 0 4Zm7 7a2 2 0 1 0 0-4 2 2 0 0 0 0 4Z" fill="#FF0072"/></svg>